<?xml version="1.0" standalone="no"?>
<!DOCTYPE svg PUBLIC "-//W3C//DTD SVG 20010904//EN"
 "http://www.w3.org/TR/2001/REC-SVG-20010904/DTD/svg10.dtd">
<svg version="1.0" xmlns="http://www.w3.org/2000/svg"
 width="552.000000pt" height="309.600000pt" viewBox="0 0 552.000000 309.600000"
 preserveAspectRatio="xMidYMid meet">
<metadata>
Created by potrace 1.13, written by Peter Selinger 2001-2015
</metadata>
<g transform="translate(0.000000,309.600000) scale(0.080000,-0.080000)"
fill="#000000" stroke="none">
<path d="M1998 3148 c-2 -398 -2 -754 0 -793 4 -101 -17 -423 -31 -481 l-12
-49 45 -44 c42 -41 49 -45 105 -48 64 -4 135 -21 135 -33 0 -4 19 -13 43 -19
37 -11 48 -10 87 8 57 26 86 26 152 1 66 -25 74 -25 123 0 52 27 88 25 139 -5
64 -38 76 -55 70 -97 -8 -45 -16 -48 -173 -53 -64 -3 -151 -11 -195 -18 -43
-8 -86 -13 -95 -11 -9 2 -46 10 -82 19 -69 16 -64 16 -236 -21 -71 -16 -88
-17 -130 -5 -68 18 -283 25 -373 12 -41 -7 -122 -16 -180 -21 -140 -13 -160
-18 -160 -39 0 -9 5 -22 11 -28 7 -7 7 -23 -1 -54 -19 -69 -6 -122 42 -164 46
-43 70 -43 173 -4 l61 23 72 -24 71 -23 38 25 c46 32 100 47 139 41 31 -6 107
-71 98 -85 -3 -4 2 -8 10 -8 9 0 16 4 16 9 0 5 32 28 72 52 l72 44 122 3 c112
3 125 2 165 -20 33 -17 66 -24 134 -28 l90 -5 3 -54 c3 -48 1 -53 -15 -46 -33
13 -128 17 -168 7 -22 -6 -76 -20 -120 -32 -89 -24 -266 -31 -302 -12 -45 25
-105 31 -147 16 -25 -8 -81 -14 -145 -14 -62 0 -128 -6 -165 -16 -33 -9 -81
-15 -106 -14 -158 7 -155 7 -158 -23 -4 -31 -5 -30 93 -33 96 -2 185 -15 185
-25 0 -5 -11 -9 -25 -9 -14 0 -25 -4 -25 -10 0 -5 7 -10 16 -10 9 0 28 -13 42
-28 39 -41 96 -60 162 -53 30 3 66 14 79 23 20 14 23 23 19 56 -3 22 -3 44 1
49 27 44 431 63 457 22 3 -5 -2 -9 -10 -9 -20 0 -21 -40 -1 -66 22 -29 18 -41
-21 -82 -62 -63 -76 -122 -30 -122 28 0 99 81 104 118 5 40 40 69 94 75 l46 6
-2 -118 c-3 -138 -6 -144 -93 -171 -57 -18 -59 -17 -168 12 -55 15 -69 13
-158 -22 -89 -34 -146 -37 -222 -12 l-50 17 -3 63 c-2 34 -7 62 -12 62 -5 0
-10 10 -12 23 -5 34 -63 35 -111 2 -21 -14 -44 -25 -51 -25 -23 0 -30 -68 -10
-98 9 -15 13 -24 9 -20 -4 4 -16 -3 -26 -16 -10 -13 -35 -27 -55 -31 -59 -11
-67 4 -69 142 -3 152 -22 196 -67 160 -29 -22 -39 -89 -45 -305 -5 -175 -9
-216 -22 -231 -45 -53 -51 -62 -51 -70 0 -5 -7 -14 -15 -21 -27 -22 -16 -38
31 -45 68 -10 92 -24 105 -62 14 -43 4 -55 -72 -93 -62 -32 -63 -32 -91 30
-39 85 -46 135 -52 332 -6 237 11 372 57 461 11 21 22 58 25 83 5 44 4 46 -19
42 -18 -2 -23 -8 -21 -25 2 -12 -1 -24 -6 -27 -20 -12 -37 141 -37 326 l0 187
-49 15 c-55 18 -92 20 -101 7 -3 -6 -7 -151 -8 -323 -3 -300 -4 -315 -25 -359
-17 -36 -22 -63 -22 -132 0 -51 -4 -87 -10 -87 -5 0 -10 -15 -10 -34 0 -18
-15 -62 -33 -97 -40 -78 -56 -100 -84 -116 -19 -11 -23 -10 -26 5 -3 9 -3 156
-2 327 2 243 6 320 18 355 17 51 48 113 60 118 4 2 7 10 7 18 0 8 4 14 9 14
12 0 31 56 31 92 0 21 -6 31 -20 35 -16 4 -20 14 -21 47 -3 61 2 110 11 116 4
3 10 25 12 50 4 33 0 54 -14 78 -11 17 -23 32 -27 32 -5 0 -8 61 -7 135 1 153
-4 144 85 149 22 1 43 5 47 8 14 14 -10 50 -46 68 -94 48 -104 102 -30 153 31
22 74 22 106 0 25 -16 27 -16 45 8 52 69 50 90 -12 108 -24 7 -48 17 -54 21
-5 4 -27 10 -47 14 -35 6 -37 9 -44 53 -12 80 -8 166 10 228 10 33 17 67 17
75 0 30 10 60 19 60 6 0 10 -9 10 -20 0 -11 3 -20 8 -20 4 0 7 19 7 43 0 26 9
58 23 81 l23 38 53 -7 c30 -3 72 -2 93 3 21 6 50 13 66 16 33 8 36 33 5 45
-21 8 -151 15 -223 13 -16 -1 -49 -7 -73 -13 -116 -32 -274 20 -356 116 -44
51 -48 60 -43 96 6 47 -14 65 -53 46 -35 -18 -47 -43 -33 -67 9 -14 10 -27 3
-46 -10 -26 -12 -27 -68 -20 -78 10 -98 9 -132 -9 -37 -19 -93 -19 -167 0 -31
8 -65 15 -75 15 -17 0 -18 -66 -18 -1510 l0 -1510 3178 1 c1747 1 3157 5 3132
10 -25 4 -63 8 -84 8 -22 1 -36 4 -32 8 8 8 26 10 191 23 205 16 317 35 408
71 30 13 32 17 13 42 -7 9 -11 29 -8 44 6 29 15 29 -123 2 -84 -16 -161 -28
-223 -35 -74 -9 -291 13 -358 36 -62 22 -94 25 -94 11 0 -31 -209 -82 -410
-101 -145 -13 -401 -13 -434 0 -14 5 -66 11 -117 14 -95 5 -111 12 -135 57
-20 40 -17 67 14 124 21 39 38 56 79 76 l52 27 -42 6 c-23 4 -44 12 -48 17 -3
6 -42 10 -85 10 -78 1 -213 22 -246 40 -10 5 -27 9 -38 9 -11 0 -20 6 -20 13
0 9 -2 9 -8 -1 -28 -43 -121 102 -122 189 0 40 53 114 105 144 43 26 46 30 39
59 -9 45 -21 52 -29 17 -4 -17 -11 -31 -17 -31 -6 0 -8 -7 -5 -15 7 -17 -49
-31 -86 -21 -47 11 -59 57 -55 207 3 116 6 138 22 154 30 31 80 25 121 -15
l35 -34 34 33 c23 22 47 34 74 38 96 13 122 -20 122 -154 0 -48 4 -94 9 -102
12 -19 39 -2 97 62 114 125 147 259 163 673 8 207 -1 552 -19 673 -6 41 -18
83 -26 92 -30 33 -14 53 46 61 72 8 388 10 418 1 20 -5 23 -11 20 -39 -3 -30
-1 -34 19 -34 35 0 70 -20 82 -47 7 -15 11 -92 11 -201 0 -207 -4 -218 -85
-233 -27 -5 -57 -7 -67 -3 -16 5 -18 -1 -18 -55 l0 -60 62 -7 c47 -5 67 -13
85 -32 22 -24 23 -31 23 -207 0 -163 -2 -185 -18 -206 -23 -28 -96 -51 -111
-36 -14 14 -15 -25 0 -76 7 -25 16 -37 28 -37 10 0 32 -5 49 -11 43 -15 56
-54 48 -140 -6 -71 -6 -71 28 -105 57 -57 66 -49 67 59 1 97 7 129 26 162 10
18 25 21 144 25 126 5 133 4 163 -18 52 -38 55 -53 55 -227 1 -88 -3 -165 -7
-172 -4 -6 -20 -15 -35 -18 -15 -4 -27 -9 -27 -12 0 -2 11 -19 25 -38 14 -18
28 -48 31 -67 7 -43 -11 -92 -32 -84 -9 3 -17 -1 -21 -11 -12 -31 -43 -53 -73
-53 -17 0 -45 -8 -63 -17 -29 -15 -249 -67 -322 -77 -52 -7 -165 -29 -163 -32
2 -1 94 -8 205 -14 l203 -12 54 27 c52 26 64 27 243 31 282 6 577 -9 633 -33
31 -13 61 -18 98 -15 l52 4 0 93 0 92 -232 7 c-144 5 -243 12 -258 19 l-25 12
-7 950 c-4 530 -3 956 2 965 13 24 75 54 95 46 14 -5 16 -14 11 -51 -7 -42 -6
-45 15 -45 20 0 21 3 15 44 -8 53 9 76 57 76 53 0 61 -11 53 -69 -6 -46 -5
-51 13 -51 18 0 20 6 18 58 l-2 57 44 3 c53 4 63 -8 55 -64 -5 -32 -2 -42 10
-47 18 -7 19 -4 16 66 l-1 47 60 0 c34 0 61 4 61 10 0 12 -96 12 -320 0 -147
-8 -175 -12 -255 -41 -79 -28 -98 -31 -157 -25 -69 6 -148 31 -148 46 0 5 -8
9 -17 9 -16 -1 -97 17 -188 40 -25 7 -27 9 -12 16 10 4 16 14 13 21 -12 32 49
40 149 18 29 -6 29 -6 12 12 -15 16 -31 19 -91 17 -41 -1 -91 -6 -112 -12 -58
-16 -64 -2 -64 147 l0 124 29 27 c27 25 39 29 128 34 177 12 209 10 240 -17
l28 -24 -1 -154 c0 -84 -2 -162 -5 -173 -4 -18 2 -20 64 -23 105 -5 208 39
187 79 -6 11 -10 231 -10 563 l0 546 -115 0 -115 0 -28 -31 c-27 -31 -28 -31
-179 -41 -147 -11 -151 -11 -181 11 -17 12 -34 30 -37 41 -5 16 -15 20 -48 20
-37 0 -44 -4 -56 -30 -25 -57 -49 -65 -222 -69 -103 -2 -164 1 -177 8 -12 6
-27 29 -33 51 l-12 40 -182 0 -183 0 -7 -36 c-15 -82 -51 -111 -118 -99 -37 7
-87 48 -87 70 0 7 -7 15 -15 19 -10 3 -20 -6 -31 -30 -17 -36 -58 -64 -92 -64
-31 0 -55 36 -60 90 l-5 50 -49 0 c-43 0 -49 -2 -39 -14 9 -11 9 -25 1 -58
-17 -66 -30 -87 -66 -98 -29 -10 -37 -8 -64 11 -38 29 -38 40 1 63 17 10 28
20 25 23 -7 7 -74 -35 -79 -50 -2 -7 -16 1 -35 21 l-32 34 -21 -36 c-24 -42
-66 -67 -97 -59 -28 7 -52 61 -52 117 0 46 0 46 -34 46 l-33 0 -7 -65 c-4 -39
-2 -73 4 -84 15 -28 13 -33 -11 -26 -27 9 -63 -28 -56 -56 8 -28 -22 -24 -33
5 -6 17 -24 29 -60 41 -61 20 -80 53 -80 135 l0 50 -129 0 -130 0 -11 -55 c-6
-30 -8 -74 -5 -97 6 -37 3 -46 -18 -66 -22 -21 -40 -25 -165 -34 -209 -16
-226 -4 -223 160 l2 92 -30 0 -31 0 0 -95 c0 -134 -18 -165 -95 -165 -54 0
-65 26 -65 152 l0 108 -335 0 -335 0 -2 -722z m2256 510 c9 -12 16 -30 16 -40
0 -10 4 -18 10 -18 14 0 31 -37 24 -54 -9 -23 -22 -20 -26 7 -2 12 -9 21 -17
19 -8 -2 -21 0 -29 3 -11 4 -12 8 -2 19 14 18 -3 56 -25 56 -8 0 -15 5 -15 11
0 5 5 7 10 4 6 -3 10 -1 10 4 0 19 28 12 44 -11z m1862 -3 l25 -25 -3 -191 -3
-191 -26 -22 c-24 -21 -41 -24 -170 -30 -160 -8 -199 0 -218 40 -15 33 -15
354 0 387 21 46 51 53 247 55 119 2 124 1 148 -23z m-525 -24 l29 -29 0 -172
c0 -194 -7 -222 -62 -238 -48 -15 -281 -22 -322 -11 -61 17 -66 33 -66 222 0
231 2 234 160 247 47 3 118 7 158 8 69 2 75 0 103 -27z m-1551 -31 c11 0 22
-12 29 -30 11 -34 -1 -40 -22 -10 -9 13 -20 18 -31 14 -11 -4 -16 -1 -16 10 0
13 -4 15 -19 6 -11 -5 -22 -6 -25 -1 -10 15 8 23 38 17 16 -3 36 -6 46 -6z
m716 -15 c39 -27 46 -65 42 -222 -4 -164 -17 -207 -67 -216 -33 -7 -103 17
-116 39 -5 9 -18 26 -27 38 l-16 21 -35 -40 c-19 -22 -38 -37 -42 -33 -4 3 -9
34 -12 68 -5 57 -4 62 16 67 16 4 21 12 19 27 -2 11 -9 20 -17 18 -7 -1 -19 3
-27 9 -11 9 -17 9 -28 -1 -14 -11 -11 -39 5 -50 11 -8 15 -124 4 -130 -14 -7
-55 78 -55 115 -1 35 -19 64 -37 58 -7 -3 -13 0 -13 6 0 6 -9 11 -19 11 -11 0
-23 9 -26 20 -3 11 -11 20 -16 20 -5 0 -9 5 -9 10 0 17 18 11 25 -9 3 -10 19
-21 35 -25 35 -6 63 2 54 16 -4 6 2 5 14 -1 11 -6 23 -11 27 -11 10 0 -24 58
-37 64 -10 5 -10 7 0 12 6 3 12 10 12 16 0 7 -5 6 -14 -1 -18 -15 -56 2 -56
24 0 17 14 19 40 5 15 -8 21 -6 30 10 18 33 46 43 88 29 42 -14 51 -24 52 -59
1 -25 1 -25 18 6 31 55 48 73 83 88 44 19 79 20 105 1z m-546 -66 c0 -12 -31
-11 -70 2 l-33 12 24 13 c13 7 27 10 31 8 5 -3 8 1 8 8 1 14 40 -28 40 -43z
m-462 35 c55 -11 65 -52 60 -228 -5 -165 -15 -198 -66 -217 -37 -14 -105 -1
-138 28 l-29 25 -4 163 -3 163 32 30 c37 36 87 48 148 36z m216 -13 c15 -14
48 -22 116 -31 139 -16 135 -14 177 -89 53 -93 63 -118 58 -149 -2 -15 -7 -43
-10 -63 -3 -20 -15 -47 -26 -60 -17 -20 -30 -24 -74 -23 -66 0 -99 17 -120 60
-9 19 -20 34 -26 34 -5 0 -19 -16 -30 -35 -33 -55 -82 -71 -123 -40 -24 18
-33 107 -26 263 5 104 7 115 29 133 29 23 30 23 55 0z m-674 -31 c18 -21 20
-37 20 -209 -1 -170 -2 -188 -20 -209 -24 -28 -101 -41 -253 -42 -96 0 -99 1
-128 29 l-29 29 0 162 c0 242 7 252 179 261 172 9 207 6 231 -21z m993 0 c4
-16 0 -20 -17 -20 -32 0 -37 9 -18 30 18 22 27 19 35 -10z m-1486 -24 c27 -23
28 -28 31 -136 3 -83 0 -115 -9 -120 -10 -7 -10 -14 1 -39 14 -35 8 -83 -15
-118 -22 -33 -77 -32 -111 3 l-26 25 4 172 c4 181 9 205 53 226 31 15 42 13
72 -13z m2063 -345 c0 -13 -26 -32 -33 -24 -14 13 -6 33 13 33 11 0 20 -4 20
-9z m-276 -92 c18 15 52 0 61 -28 4 -12 13 -17 30 -16 42 5 50 -18 25 -70 -21
-43 -23 -45 -43 -32 -37 24 -62 64 -49 79 14 18 -7 47 -33 45 -12 -1 -20 5
-23 18 -2 16 -1 17 7 6 8 -12 12 -12 25 -2z m1011 -15 c25 -26 25 -30 25 -200
0 -108 -4 -182 -11 -198 -19 -41 -62 -54 -207 -60 -234 -12 -232 -14 -232 234
0 251 -7 245 278 249 121 1 123 1 147 -25z m-2091 -35 c15 -12 26 -30 26 -45
0 -26 -14 -32 -27 -10 -4 7 -22 21 -39 29 -30 16 -32 16 -27 -2 6 -24 -13 -36
-32 -21 -17 14 -19 9 -30 -52 -6 -38 -27 -44 -39 -11 -10 26 26 88 51 88 12 0
30 10 38 23 20 28 45 28 79 1z m761 -13 c27 -11 35 -22 39 -48 9 -59 13 -338
4 -338 -4 0 -8 -6 -8 -14 0 -8 -6 -16 -14 -19 -18 -7 -101 64 -121 104 -14 26
-13 31 7 66 15 25 17 34 7 26 -9 -7 -18 -10 -21 -8 -3 3 -11 -8 -17 -24 -16
-36 -7 -55 57 -123 25 -27 42 -51 39 -54 -3 -3 -28 -7 -56 -7 -42 -2 -51 -5
-53 -22 -3 -18 -10 -20 -62 -19 -42 0 -61 5 -67 16 -5 9 -24 19 -42 22 -65 12
-72 29 -75 203 -2 86 -1 167 3 180 3 14 20 30 40 40 28 14 38 14 65 3 17 -7
35 -21 41 -31 13 -26 19 -24 64 16 35 30 55 38 118 43 10 1 33 -4 52 -12z
m175 -2 c0 -13 7 -15 43 -10 37 6 47 3 71 -18 18 -15 26 -28 21 -36 -6 -9 -4
-11 4 -5 7 4 23 -3 38 -16 27 -26 116 -140 111 -143 -2 -1 -39 -12 -83 -25
-88 -25 -129 -53 -119 -84 7 -21 -21 -57 -44 -57 -11 0 -10 4 6 18 l20 18 -24
21 c-13 12 -24 17 -24 11 0 -5 -7 -8 -15 -4 -8 3 -15 1 -15 -4 0 -6 -4 -10 -9
-10 -35 0 -48 247 -16 323 16 38 35 50 35 21z m334 -3 c21 -23 36 -113 23
-136 -6 -11 -4 -22 7 -34 16 -18 12 -31 -10 -31 -7 0 -14 8 -17 18 -2 11 -7 5
-14 -18 l-10 -35 -32 50 c-36 57 -36 87 -1 161 24 49 30 52 54 25z m-1002 -15
c30 -22 38 -64 37 -189 -1 -125 -6 -158 -25 -191 -10 -17 -14 -16 -60 19 -27
20 -58 48 -69 63 -24 31 -29 82 -9 82 23 0 16 30 -10 40 -13 5 -27 14 -31 19
-3 6 -11 11 -17 11 -7 0 -7 -4 1 -14 16 -20 -13 -44 -33 -27 -22 18 -31 -5
-29 -76 1 -35 -1 -63 -4 -63 -3 0 -17 8 -31 19 -15 10 -37 22 -50 26 -19 5
-21 9 -11 21 6 8 22 14 35 14 16 0 24 6 24 18 0 34 25 67 50 67 23 0 25 4 31
61 3 33 9 66 14 73 22 36 151 55 187 27z m-483 -22 c22 -18 31 -35 31 -56 0
-35 20 -58 50 -58 13 0 20 -5 17 -12 -2 -7 -17 -13 -33 -13 -38 -1 -53 -11
-48 -33 4 -12 -6 -22 -36 -34 -22 -10 -45 -18 -51 -18 -5 0 -24 -7 -40 -16
-34 -17 -71 -12 -51 8 8 8 8 17 1 30 -7 14 -6 18 5 18 24 0 29 20 10 35 -11 7
-22 11 -26 9 -5 -3 -8 0 -8 5 0 6 -4 11 -10 11 -5 0 -10 -7 -10 -15 0 -24 -36
-38 -60 -23 -26 16 -25 24 3 32 19 6 15 9 -28 24 -48 16 -50 16 -53 -1 -5 -27
-34 -16 -45 16 -9 28 -5 60 12 86 12 19 79 28 223 30 112 1 118 0 147 -25z
m-544 -33 c-7 -22 47 -91 71 -91 20 0 18 -85 -2 -119 -20 -34 -41 -48 -88 -56
-33 -7 -37 -5 -47 21 -11 29 -7 193 6 225 6 15 39 37 58 38 5 1 6 -8 2 -18z
m45 -5 c0 -8 5 -16 12 -18 6 -2 8 -10 4 -17 -6 -9 -11 -9 -22 0 -16 13 -19 49
-4 49 6 0 10 -6 10 -14z m2103 -98 c19 -22 23 -53 7 -63 -10 -6 -80 60 -80 75
0 27 45 19 73 -12z m96 -25 c9 -17 11 -17 24 1 16 22 47 15 77 -17 24 -25 26
-45 6 -53 -14 -5 -23 0 -62 34 -12 11 -18 12 -30 2 -12 -11 -17 -10 -29 6 -17
22 -19 44 -5 44 5 0 13 -8 19 -17z m-2009 -33 c26 -22 52 -40 58 -40 5 0 15
-7 22 -15 10 -12 10 -15 -3 -15 -8 0 -17 5 -19 12 -3 8 -11 7 -28 -5 -50 -35
-120 -10 -120 43 0 71 23 77 90 20z m1804 -29 c3 -4 28 -11 56 -15 76 -10 100
-22 100 -49 0 -23 -2 -23 -85 -21 -83 2 -84 1 -70 -19 12 -17 12 -22 0 -33
-17 -17 -45 -8 -45 15 0 13 -2 14 -9 2 -8 -12 -15 -9 -41 12 -17 15 -38 27
-46 27 -9 0 -24 5 -35 11 -17 9 -18 13 -7 26 32 39 166 71 182 44z m-1534 -40
c-6 -13 -17 -17 -30 -14 -35 9 -20 30 23 32 14 1 16 -3 7 -18z m420 -70 c53
-53 61 -66 46 -69 -27 -6 -101 25 -131 56 -18 18 -25 34 -22 49 2 13 0 23 -4
23 -5 0 -9 5 -9 10 0 26 61 -9 120 -69z m-230 54 c0 -20 -20 -29 -33 -16 -9 9
-16 6 -29 -11 -22 -30 -45 -13 -24 18 17 24 86 31 86 9z m-253 -35 c29 -10 29
-11 22 -68 -4 -31 -8 -68 -8 -82 0 -24 0 -24 14 -6 8 11 15 41 15 67 0 26 5
51 11 55 9 5 10 -1 5 -21 -4 -16 -2 -96 5 -180 7 -83 9 -164 5 -178 -6 -25
-10 -27 -60 -27 -34 0 -58 5 -65 14 -19 22 -1 436 18 436 5 0 21 -5 38 -10z
m-300 -32 c18 -15 16 -38 -2 -38 -9 0 -29 7 -44 15 -27 13 -29 13 -24 -4 5
-19 -22 -37 -32 -21 -6 10 13 50 30 63 12 9 54 0 72 -15z m1807 -17 c25 -22
42 -42 37 -45 -4 -3 -16 3 -26 14 -13 15 -20 16 -30 7 -9 -8 -10 -16 -3 -24 5
-7 8 -22 6 -35 -3 -21 -8 -23 -65 -23 -35 0 -63 4 -63 8 0 4 -6 7 -12 6 -28
-3 -38 2 -38 20 0 27 19 39 86 55 32 8 54 15 49 15 -6 1 -16 10 -23 21 -23 37
32 24 82 -19z m-1931 -7 c8 -8 -11 -57 -25 -65 -19 -12 -38 2 -38 27 0 28 46
55 63 38z m1211 -71 c4 -4 15 -8 23 -8 9 0 18 -6 20 -12 3 -7 -3 -13 -12 -13
-22 0 -55 18 -55 30 0 12 14 13 24 3z m495 -27 c7 -8 21 -12 32 -9 12 4 25 0
30 -8 12 -20 11 -29 -3 -26 -7 1 -12 -4 -10 -10 3 -20 -12 -15 -26 7 -7 12
-17 18 -21 15 -12 -7 -2 -46 17 -67 17 -20 7 -23 -33 -12 -17 4 -20 13 -19 52
2 67 3 72 13 72 5 0 14 -6 20 -14z m1625 -22 c3 -9 7 -61 8 -117 1 -65 3 -81
5 -44 2 31 8 57 13 57 6 0 11 19 11 43 l2 42 7 -40 6 -40 8 30 c14 54 28 85
37 79 12 -7 12 -381 0 -403 -6 -10 -32 -40 -60 -67 l-49 -49 -6 -85 c-4 -47
-8 -127 -10 -178 -6 -137 -12 -162 -40 -162 -26 0 -36 21 -36 78 0 17 -4 32
-9 32 -5 0 -9 -50 -10 -111 0 -73 -5 -116 -13 -126 -10 -12 -31 -14 -106 -11
-83 4 -97 7 -113 26 -25 32 -32 90 -27 256 3 144 4 146 31 173 24 25 36 28
107 31 61 3 86 0 105 -12 24 -16 43 -7 30 14 -11 18 17 75 48 95 17 11 35 29
41 40 6 11 14 22 17 25 19 14 30 88 21 140 l-10 55 -1 -75 c-1 -82 -20 -128
-63 -151 -22 -13 -239 -15 -280 -3 -37 11 -48 64 -48 236 0 239 -1 238 226
238 129 0 153 -2 158 -16z m-1824 -9 c0 -8 -9 -15 -20 -15 -20 0 -26 11 -13
23 12 13 33 7 33 -8z m486 -30 c39 -27 46 -64 42 -229 -3 -138 -5 -158 -24
-183 -40 -53 -144 -39 -170 23 -18 42 -35 52 -48 29 -31 -52 -59 -75 -89 -75
-27 0 -99 39 -74 40 4 0 3 8 -2 18 -15 28 15 140 55 200 31 48 84 92 108 91 5
-1 12 5 16 11 6 10 142 85 160 89 3 1 15 -6 26 -14z m-983 -29 c32 -30 42 -99
34 -245 -7 -132 -12 -146 -52 -171 -29 -18 -39 -19 -83 -10 -30 7 -59 21 -73
36 -23 24 -24 34 -28 184 -2 98 1 165 8 177 28 53 148 71 194 29z m516 -15
c19 -11 21 -21 23 -139 1 -70 1 -147 0 -172 -2 -38 1 -47 20 -55 13 -6 24 -19
26 -31 3 -18 -2 -20 -38 -18 -23 1 -44 4 -47 8 -14 14 -23 4 -17 -19 5 -19 2
-25 -10 -25 -9 0 -17 8 -17 18 -1 9 -4 4 -8 -13 l-7 -30 -17 31 c-9 18 -29 36
-45 42 -16 6 -44 29 -62 51 -37 46 -46 49 -55 22 -18 -59 -83 -85 -125 -52
-24 19 -25 25 -31 168 -5 136 1 191 17 150 3 -9 15 -17 25 -17 20 0 49 47 42
67 -7 20 43 27 68 10 24 -18 49 -12 49 11 0 13 14 14 94 9 52 -3 104 -10 115
-16z m181 -39 c0 -11 -49 -57 -54 -51 -2 2 -7 16 -11 32 -7 26 -5 27 29 27 20
0 36 -4 36 -8z m-1689 -223 c35 -35 39 -44 39 -89 0 -64 -23 -90 -79 -90 -56
0 -71 25 -71 118 0 40 4 81 10 91 14 27 56 15 101 -30z m506 24 c23 -24 25
-33 21 -99 -3 -58 -8 -77 -26 -97 -22 -23 -22 -25 -28 -478 -3 -250 -9 -470
-14 -489 -5 -19 -11 -101 -15 -182 -7 -139 -9 -150 -39 -210 -19 -35 -40 -65
-50 -66 -17 -4 -18 12 -13 270 3 152 10 292 16 316 9 34 8 56 -4 109 -20 86
-39 485 -25 533 5 19 10 79 10 132 0 53 4 99 9 102 4 3 11 24 15 46 5 30 19
55 53 91 25 27 50 49 56 49 5 0 21 -12 34 -27z m-2883 -109 c10 -27 7 -34 -18
-34 -32 0 -40 14 -20 34 20 20 30 20 38 0z m3363 -213 c27 -17 32 -27 39 -77
11 -89 -3 -281 -23 -314 -18 -32 -57 -43 -113 -34 -88 14 -103 52 -98 250 3
158 9 171 77 185 61 12 85 10 118 -10z m1004 -10 l29 -29 0 -151 c0 -167 -12
-220 -56 -240 -34 -15 -112 6 -130 36 -8 13 -21 35 -30 49 l-16 26 -15 -28
c-38 -74 -99 -97 -139 -53 -17 19 -19 38 -19 194 0 156 2 175 19 194 28 31 77
28 116 -9 39 -36 43 -37 73 -5 47 51 125 58 168 16z m-771 2 c14 -9 29 -23 33
-30 10 -16 41 -17 69 -2 17 9 23 8 30 -5 16 -28 47 -19 65 19 13 26 23 35 37
33 35 -5 29 -34 -19 -93 -60 -73 -54 -92 8 -26 26 28 51 51 56 51 8 0 31 -157
31 -216 0 -102 -34 -164 -89 -164 -63 1 -140 48 -141 86 0 25 -29 22 -46 -4
-41 -62 -84 -77 -121 -42 -29 26 -35 78 -31 239 3 126 4 134 27 152 29 23 59
24 91 2z m-1254 -613 c0 -102 3 -198 7 -215 5 -22 2 -38 -13 -60 l-20 -30 0
70 c0 39 -5 119 -11 179 -9 86 -9 127 1 193 21 134 35 81 36 -137z m1021 48
c33 -16 38 -40 35 -188 -3 -145 -11 -173 -57 -190 -40 -15 -114 4 -144 36 -25
27 -26 34 -29 161 l-4 133 31 29 c42 40 110 47 168 19z m504 -1 c33 -25 39
-55 39 -189 0 -115 -3 -137 -20 -165 -21 -35 -24 -36 -80 -34 -70 3 -90 12
-125 58 l-34 44 -25 -39 c-44 -69 -116 -65 -136 8 -14 49 -13 253 2 285 21 46
83 46 132 0 31 -29 42 -31 53 -10 25 43 155 72 194 42z m-3961 -205 c5 -21 10
-137 10 -258 0 -174 -3 -229 -15 -257 -17 -42 -20 -98 -5 -113 18 -18 24 -204
7 -249 -22 -62 -45 -54 -86 30 l-33 69 17 72 c15 66 15 74 1 102 -23 45 -20
93 8 131 19 26 25 49 30 119 7 83 5 91 -28 180 l-36 94 18 59 c9 32 23 59 30
59 6 0 12 4 12 9 0 6 12 6 30 0 22 -8 32 -20 40 -47z m2018 -488 c92 -26 108
-53 78 -126 -18 -42 -61 -60 -183 -78 -67 -10 -87 -10 -112 1 -36 16 -37 22
-11 59 14 19 18 37 14 57 -8 40 20 71 81 87 68 18 69 18 133 0z m-404 -57 c36
-29 32 -56 -16 -110 -27 -30 -41 -37 -69 -37 -29 0 -41 7 -67 39 -44 55 -44
96 1 115 52 23 117 20 151 -7z m2414 -82 c-9 -9 -118 -35 -148 -35 -17 0 -30
-4 -30 -10 0 -13 -67 -13 -75 1 -10 15 -7 17 80 32 80 15 183 22 173 12z
m-383 -35 c-11 -5 -31 -9 -45 -9 -20 -1 -22 1 -10 9 8 5 29 9 45 9 26 0 27 -2
10 -9z m-196 -24 c-14 -14 -340 -56 -328 -42 11 12 202 44 268 45 35 1 62 -1
60 -3z m-1639 -68 c8 -15 12 -29 10 -32 -10 -9 -162 -26 -185 -20 -20 5 -22 8
-12 34 23 62 155 74 187 18z m-300 -20 c11 -12 20 -26 20 -30 0 -13 -48 -28
-90 -28 -53 0 -69 8 -63 31 13 49 96 66 133 27z m2320 -108 c128 -7 244 -18
270 -26 25 -7 79 -16 120 -20 41 -4 84 -8 95 -9 11 -1 37 -3 58 -4 20 0 37 -4
37 -8 0 -17 -829 -1 -935 17 -27 5 -126 12 -218 16 -93 3 -166 8 -164 11 3 2
52 9 109 15 56 5 137 14 178 18 41 5 109 7 150 5 41 -2 176 -9 300 -15z m846
-82 c3 -4 -11 -8 -30 -8 -20 0 -36 5 -36 10 0 12 59 10 66 -2z"/>
<path d="M4443 3509 c-15 -15 -5 -47 17 -54 10 -3 30 -3 44 1 22 5 23 9 14 29
-7 15 -16 21 -29 18 -10 -3 -19 0 -19 6 0 14 -13 14 -27 0z"/>
<path d="M4174 2846 c-4 -16 -1 -32 6 -41 12 -14 16 -13 37 6 28 27 29 39 5
39 -10 0 -23 5 -29 11 -9 9 -14 5 -19 -15z"/>
<path d="M4042 2628 c-7 -7 -12 -20 -12 -30 0 -9 -8 -21 -17 -27 -27 -15 -13
-19 34 -9 41 9 41 9 31 38 -12 36 -21 43 -36 28z"/>
<path d="M320 3176 c0 -19 46 -66 65 -66 23 0 18 30 -11 56 -28 27 -54 31 -54
10z"/>
<path d="M995 2620 c3 -5 19 -10 36 -10 16 0 29 -4 29 -9 0 -5 10 -11 23 -13
12 -2 21 -9 20 -16 -2 -6 2 -12 7 -12 15 0 12 19 -5 36 -25 26 -124 47 -110
24z"/>
<path d="M1278 2480 c-27 -28 -46 -55 -43 -60 10 -16 25 -12 25 6 0 10 16 33
36 52 33 32 39 34 80 28 35 -4 44 -3 44 9 0 11 -12 15 -47 15 -43 0 -50 -4
-95 -50z"/>
<path d="M1057 1982 c-10 -10 -17 -23 -17 -29 0 -6 -7 -16 -15 -23 -8 -7 -15
-27 -15 -45 0 -34 18 -49 44 -39 17 7 46 75 46 108 0 36 -23 50 -43 28z"/>
<path d="M1090 1792 c-78 -6 -97 -40 -69 -123 19 -55 29 -63 48 -38 9 12 24
30 33 40 17 18 41 117 29 122 -3 1 -22 1 -41 -1z"/>
<path d="M1606 1741 c-18 -7 -17 -9 11 -29 29 -21 83 -39 83 -29 0 20 -26 56
-44 61 -25 7 -26 7 -50 -3z"/>
<path d="M6502 1251 c-10 -6 -15 -45 -19 -135 l-5 -126 23 3 c21 3 24 10 27
53 1 27 -1 86 -5 131 -6 65 -11 81 -21 74z"/>
<path d="M6626 1238 c-3 -13 -6 -71 -6 -129 0 -103 0 -106 23 -104 18 1 22 7
21 33 -3 208 -4 222 -18 222 -7 0 -16 -10 -20 -22z"/>
<path d="M6748 1133 c-2 -65 -2 -123 0 -128 4 -15 39 -16 45 -2 3 7 2 65 -1
130 -4 104 -7 117 -23 117 -16 0 -18 -12 -21 -117z"/>
<path d="M6503 913 c-14 -5 -16 -57 -4 -88 6 -15 10 -8 16 33 8 57 7 62 -12
55z"/>
<path d="M6758 868 c6 -53 19 -56 23 -5 3 33 1 43 -11 43 -11 0 -14 -10 -12
-38z"/>
<path d="M5087 423 c18 -2 50 -2 70 0 21 2 7 4 -32 4 -38 0 -55 -2 -38 -4z"/>
<path d="M6810 394 c0 -3 14 -26 32 -50 42 -59 58 -57 58 6 l0 50 -45 0 c-25
0 -45 -3 -45 -6z"/>
</g>
</svg>
